<?xml version="1.0" encoding="UTF-8"?>
<mxfile host="app.diagrams.net" modified="2025-01-27T00:00:00.000Z" agent="5.0" etag="drawio_version" version="24.7.17">
  <diagram name="API-MDE-03-01 Flow" id="api-flow-diagram">
    <mxGraphModel dx="1422" dy="754" grid="1" gridSize="10" guides="1" tooltips="1" connect="1" arrows="1" fold="1" page="1" pageScale="1" pageWidth="1169" pageHeight="827" math="0" shadow="0">
      <root>
        <mxCell id="0" />
        <mxCell id="1" parent="0" />
        
        <!-- Title -->
        <mxCell id="title" value="API-MDE-03-01: Get Idle Resource List - Processing Flow" style="text;html=1;strokeColor=none;fillColor=none;align=center;verticalAlign=middle;whiteSpace=wrap;rounded=0;fontSize=16;fontStyle=1;" vertex="1" parent="1">
          <mxGeometry x="400" y="20" width="400" height="30" as="geometry" />
        </mxCell>

        <!-- Start -->
        <mxCell id="start" value="START&#xa;HTTP GET /api/v1/idle-resources" style="ellipse;whiteSpace=wrap;html=1;fillColor=#d5e8d4;strokeColor=#82b366;" vertex="1" parent="1">
          <mxGeometry x="520" y="70" width="160" height="60" as="geometry" />
        </mxCell>

        <!-- Step 1: Authentication -->
        <mxCell id="auth" value="Step 1: Authentication &amp; Authorization&#xa;- Validate JWT Token&#xa;- Extract user context" style="rounded=1;whiteSpace=wrap;html=1;fillColor=#fff2cc;strokeColor=#d6b656;" vertex="1" parent="1">
          <mxGeometry x="480" y="160" width="240" height="70" as="geometry" />
        </mxCell>

        <!-- Step 2: Access Control Service -->
        <mxCell id="access_service" value="SVE-MDE-03-08&#xa;Department Access Control Service&#xa;- Check user permissions&#xa;- Get allowed departments" style="rounded=1;whiteSpace=wrap;html=1;fillColor=#dae8fc;strokeColor=#6c8ebf;" vertex="1" parent="1">
          <mxGeometry x="480" y="260" width="240" height="80" as="geometry" />
        </mxCell>

        <!-- Step 3: Input Validation -->
        <mxCell id="validation" value="Step 2: Input Validation&#xa;- Validate page/pageSize&#xa;- Validate sort fields&#xa;- Validate date formats&#xa;- Sanitize search query" style="rounded=1;whiteSpace=wrap;html=1;fillColor=#fff2cc;strokeColor=#d6b656;" vertex="1" parent="1">
          <mxGeometry x="480" y="370" width="240" height="80" as="geometry" />
        </mxCell>

        <!-- Step 4: CRUD Service -->
        <mxCell id="crud_service" value="SVE-MDE-03-01&#xa;Idle Resource CRUD Service&#xa;- Build query criteria&#xa;- Apply user permissions&#xa;- Add filters &amp; sorting" style="rounded=1;whiteSpace=wrap;html=1;fillColor=#dae8fc;strokeColor=#6c8ebf;" vertex="1" parent="1">
          <mxGeometry x="480" y="480" width="240" height="80" as="geometry" />
        </mxCell>

        <!-- DAO Layer -->
        <mxCell id="dao" value="DAO-MDE-03-01-02&#xa;Read Idle Resource Record&#xa;- Execute SQL query&#xa;- Join with related tables" style="rounded=1;whiteSpace=wrap;html=1;fillColor=#f8cecc;strokeColor=#b85450;" vertex="1" parent="1">
          <mxGeometry x="480" y="590" width="240" height="80" as="geometry" />
        </mxCell>

        <!-- Database Tables -->
        <mxCell id="db_tables" value="Database Tables&#xa;• idle_resources (Main)&#xa;• employees&#xa;• departments&#xa;• resource_types&#xa;• user_departments" style="shape=cylinder3;whiteSpace=wrap;html=1;boundedLbl=1;backgroundOutline=1;size=15;fillColor=#e1d5e7;strokeColor=#9673a6;" vertex="1" parent="1">
          <mxGeometry x="480" y="700" width="240" height="100" as="geometry" />
        </mxCell>

        <!-- Performance Optimization -->
        <mxCell id="perf_service" value="SVE-MDE-03-15&#xa;Performance Optimization Service&#xa;- Check cache&#xa;- Apply optimizations" style="rounded=1;whiteSpace=wrap;html=1;fillColor=#dae8fc;strokeColor=#6c8ebf;" vertex="1" parent="1">
          <mxGeometry x="200" y="590" width="220" height="80" as="geometry" />
        </mxCell>

        <!-- Audit Trail -->
        <mxCell id="audit" value="DAO-MDE-03-04-01&#xa;Create Audit Entry&#xa;- Log access&#xa;- Record operation" style="rounded=1;whiteSpace=wrap;html=1;fillColor=#f8cecc;strokeColor=#b85450;" vertex="1" parent="1">
          <mxGeometry x="760" y="590" width="180" height="80" as="geometry" />
        </mxCell>

        <!-- Format Response -->
        <mxCell id="format" value="Step 5: Format Response&#xa;- Format JSON&#xa;- Add pagination metadata&#xa;- Add execution metrics" style="rounded=1;whiteSpace=wrap;html=1;fillColor=#fff2cc;strokeColor=#d6b656;" vertex="1" parent="1">
          <mxGeometry x="480" y="820" width="240" height="80" as="geometry" />
        </mxCell>

        <!-- End -->
        <mxCell id="end" value="RETURN&#xa;JSON Response&#xa;{records, totalCount, pageInfo}" style="ellipse;whiteSpace=wrap;html=1;fillColor=#d5e8d4;strokeColor=#82b366;" vertex="1" parent="1">
          <mxGeometry x="520" y="930" width="160" height="70" as="geometry" />
        </mxCell>

        <!-- SQL Query Box -->
        <mxCell id="sql_query" value="Main SQL Query:&#xa;SELECT ir.*, e.first_name, e.last_name, &#xa;       d.department_name, rt.type_description&#xa;FROM idle_resources ir&#xa;LEFT JOIN employees e ON ir.employee_id = e.employee_id&#xa;LEFT JOIN departments d ON ir.department_id = d.department_id&#xa;LEFT JOIN resource_types rt ON ir.resource_type = rt.type_code&#xa;WHERE [filter conditions]&#xa;ORDER BY [sort criteria]&#xa;LIMIT [pagination]" style="rounded=0;whiteSpace=wrap;html=1;fillColor=#f5f5f5;strokeColor=#666666;fontFamily=Courier New;fontSize=10;align=left;" vertex="1" parent="1">
          <mxGeometry x="60" y="700" width="360" height="140" as="geometry" />
        </mxCell>

        <!-- Response Format Box -->
        <mxCell id="response_format" value="Response Format:&#xa;{&#xa;  &quot;records&quot;: [...],&#xa;  &quot;totalCount&quot;: 150,&#xa;  &quot;pageInfo&quot;: {&#xa;    &quot;page&quot;: 1,&#xa;    &quot;pageSize&quot;: 25,&#xa;    &quot;totalPages&quot;: 6&#xa;  },&#xa;  &quot;aggregations&quot;: {...},&#xa;  &quot;executionTime&quot;: 45&#xa;}" style="rounded=0;whiteSpace=wrap;html=1;fillColor=#f5f5f5;strokeColor=#666666;fontFamily=Courier New;fontSize=10;align=left;" vertex="1" parent="1">
          <mxGeometry x="780" y="820" width="260" height="180" as="geometry" />
        </mxCell>

        <!-- Main Flow Arrows -->
        <mxCell id="arrow1" style="edgeStyle=orthogonalEdgeStyle;rounded=0;orthogonalLoop=1;jettySize=auto;html=1;exitX=0.5;exitY=1;exitDx=0;exitDy=0;entryX=0.5;entryY=0;entryDx=0;entryDy=0;" edge="1" parent="1" source="start" target="auth">
          <mxGeometry relative="1" as="geometry" />
        </mxCell>

        <mxCell id="arrow2" style="edgeStyle=orthogonalEdgeStyle;rounded=0;orthogonalLoop=1;jettySize=auto;html=1;exitX=0.5;exitY=1;exitDx=0;exitDy=0;entryX=0.5;entryY=0;entryDx=0;entryDy=0;" edge="1" parent="1" source="auth" target="access_service">
          <mxGeometry relative="1" as="geometry" />
        </mxCell>

        <mxCell id="arrow3" style="edgeStyle=orthogonalEdgeStyle;rounded=0;orthogonalLoop=1;jettySize=auto;html=1;exitX=0.5;exitY=1;exitDx=0;exitDy=0;entryX=0.5;entryY=0;entryDx=0;entryDy=0;" edge="1" parent="1" source="access_service" target="validation">
          <mxGeometry relative="1" as="geometry" />
        </mxCell>

        <mxCell id="arrow4" style="edgeStyle=orthogonalEdgeStyle;rounded=0;orthogonalLoop=1;jettySize=auto;html=1;exitX=0.5;exitY=1;exitDx=0;exitDy=0;entryX=0.5;entryY=0;entryDx=0;entryDy=0;" edge="1" parent="1" source="validation" target="crud_service">
          <mxGeometry relative="1" as="geometry" />
        </mxCell>

        <mxCell id="arrow5" style="edgeStyle=orthogonalEdgeStyle;rounded=0;orthogonalLoop=1;jettySize=auto;html=1;exitX=0.5;exitY=1;exitDx=0;exitDy=0;entryX=0.5;entryY=0;entryDx=0;entryDy=0;" edge="1" parent="1" source="crud_service" target="dao">
          <mxGeometry relative="1" as="geometry" />
        </mxCell>

        <mxCell id="arrow6" style="edgeStyle=orthogonalEdgeStyle;rounded=0;orthogonalLoop=1;jettySize=auto;html=1;exitX=0.5;exitY=1;exitDx=0;exitDy=0;entryX=0.5;entryY=0;entryDx=0;entryDy=0;" edge="1" parent="1" source="dao" target="db_tables">
          <mxGeometry relative="1" as="geometry" />
        </mxCell>

        <mxCell id="arrow7" style="edgeStyle=orthogonalEdgeStyle;rounded=0;orthogonalLoop=1;jettySize=auto;html=1;exitX=0.5;exitY=1;exitDx=0;exitDy=15;entryX=0.5;entryY=0;entryDx=0;entryDy=0;" edge="1" parent="1" source="db_tables" target="format">
          <mxGeometry relative="1" as="geometry" />
        </mxCell>

        <mxCell id="arrow8" style="edgeStyle=orthogonalEdgeStyle;rounded=0;orthogonalLoop=1;jettySize=auto;html=1;exitX=0.5;exitY=1;exitDx=0;exitDy=0;entryX=0.5;entryY=0;entryDx=0;entryDy=0;" edge="1" parent="1" source="format" target="end">
          <mxGeometry relative="1" as="geometry" />
        </mxCell>

        <!-- Side Arrows -->
        <mxCell id="arrow_perf" style="edgeStyle=orthogonalEdgeStyle;rounded=0;orthogonalLoop=1;jettySize=auto;html=1;exitX=0;exitY=0.5;exitDx=0;exitDy=0;entryX=1;entryY=0.5;entryDx=0;entryDy=0;dashed=1;" edge="1" parent="1" source="dao" target="perf_service">
          <mxGeometry relative="1" as="geometry" />
        </mxCell>

        <mxCell id="arrow_audit" style="edgeStyle=orthogonalEdgeStyle;rounded=0;orthogonalLoop=1;jettySize=auto;html=1;exitX=1;exitY=0.5;exitDx=0;exitDy=0;entryX=0;entryY=0.5;entryDx=0;entryDy=0;dashed=1;" edge="1" parent="1" source="dao" target="audit">
          <mxGeometry relative="1" as="geometry" />
        </mxCell>

        <!-- Legend -->
        <mxCell id="legend_title" value="Legend:" style="text;html=1;strokeColor=none;fillColor=none;align=left;verticalAlign=middle;whiteSpace=wrap;rounded=0;fontSize=12;fontStyle=1;" vertex="1" parent="1">
          <mxGeometry x="60" y="20" width="60" height="20" as="geometry" />
        </mxCell>

        <mxCell id="legend_api" value="API Steps" style="rounded=1;whiteSpace=wrap;html=1;fillColor=#fff2cc;strokeColor=#d6b656;fontSize=10;" vertex="1" parent="1">
          <mxGeometry x="60" y="50" width="80" height="30" as="geometry" />
        </mxCell>

        <mxCell id="legend_service" value="Services" style="rounded=1;whiteSpace=wrap;html=1;fillColor=#dae8fc;strokeColor=#6c8ebf;fontSize=10;" vertex="1" parent="1">
          <mxGeometry x="150" y="50" width="80" height="30" as="geometry" />
        </mxCell>

        <mxCell id="legend_dao" value="DAO Layer" style="rounded=1;whiteSpace=wrap;html=1;fillColor=#f8cecc;strokeColor=#b85450;fontSize=10;" vertex="1" parent="1">
          <mxGeometry x="240" y="50" width="80" height="30" as="geometry" />
        </mxCell>

        <mxCell id="legend_db" value="Database" style="shape=cylinder3;whiteSpace=wrap;html=1;boundedLbl=1;backgroundOutline=1;size=5;fillColor=#e1d5e7;strokeColor=#9673a6;fontSize=10;" vertex="1" parent="1">
          <mxGeometry x="330" y="50" width="60" height="30" as="geometry" />
        </mxCell>

        <!-- Performance Note -->
        <mxCell id="perf_note" value="Cache Check&#xa;&amp; Optimization" style="text;html=1;strokeColor=none;fillColor=none;align=center;verticalAlign=middle;whiteSpace=wrap;rounded=0;fontSize=10;fontStyle=2;" vertex="1" parent="1">
          <mxGeometry x="200" y="550" width="80" height="30" as="geometry" />
        </mxCell>

        <!-- Audit Note -->
        <mxCell id="audit_note" value="Optional&#xa;Audit Logging" style="text;html=1;strokeColor=none;fillColor=none;align=center;verticalAlign=middle;whiteSpace=wrap;rounded=0;fontSize=10;fontStyle=2;" vertex="1" parent="1">
          <mxGeometry x="810" y="550" width="80" height="30" as="geometry" />
        </mxCell>

      </root>
    </mxGraphModel>
  </diagram>
</mxfile>